<svg xmlns="http://www.w3.org/2000/svg" width="70" height="70" viewBox="0 0 70 70">
    <g fill="none" fill-rule="evenodd">
        <g fill="#C1351F" fill-rule="nonzero">
            <path d="M64.515 0H5.485C2.46 0 0 2.454 0 5.471v51.646c0 3.017 2.46 5.471 5.485 5.471h59.03c3.024 0 5.485-2.454 5.485-5.471V5.471C70 2.454 67.54 0 64.515 0zm0 59.86H5.485c-1.517 0-2.75-1.23-2.75-2.743V15.902h46.484c.755 0 1.367-.61 1.367-1.364 0-.753-.612-1.364-1.367-1.364H2.734V5.471c0-1.513 1.234-2.743 2.75-2.743h59.031c1.517 0 2.75 1.23 2.75 2.743v7.703h-7.109c-.755 0-1.367.61-1.367 1.364 0 .753.612 1.364 1.367 1.364h7.11v41.215c0 1.513-1.234 2.744-2.751 2.744z" transform="translate(0 4.118)"/>
            <path d="M8.235 4.118c-2.27 0-4.117 1.847-4.117 4.117s1.847 4.118 4.117 4.118 4.118-1.847 4.118-4.118c0-2.27-1.847-4.117-4.118-4.117zm0 5.552c-.79 0-1.435-.643-1.435-1.435 0-.79.644-1.435 1.435-1.435.792 0 1.435.644 1.435 1.435 0 .792-.643 1.435-1.435 1.435zM18.941 4.118c-2.27 0-4.117 1.847-4.117 4.117s1.847 4.118 4.117 4.118 4.118-1.847 4.118-4.118c0-2.27-1.847-4.117-4.118-4.117zm0 5.552c-.791 0-1.435-.643-1.435-1.435 0-.79.644-1.435 1.435-1.435s1.435.644 1.435 1.435c0 .792-.644 1.435-1.435 1.435zM29.647 4.118c-2.27 0-4.118 1.847-4.118 4.117s1.848 4.118 4.118 4.118c2.27 0 4.118-1.847 4.118-4.118 0-2.27-1.847-4.117-4.118-4.117zm0 5.552c-.791 0-1.435-.643-1.435-1.435 0-.79.644-1.435 1.435-1.435s1.435.644 1.435 1.435c0 .792-.644 1.435-1.435 1.435zM55.178 15.647c.909 0 1.646-.737 1.646-1.647s-.737-1.647-1.646-1.647h-.005c-.909 0-1.644.737-1.644 1.647s.74 1.647 1.649 1.647z" transform="translate(0 4.118)"/>
        </g>
        <path d="M0 0H70V70H0z"/>
    </g>
</svg>
