<?xml version="1.0" encoding="UTF-8"?>
<svg width="18px" height="18px" viewBox="0 0 18 18" version="1.1" xmlns="http://www.w3.org/2000/svg" xmlns:xlink="http://www.w3.org/1999/xlink">
    <title>IC-Gmail</title>
    <g id="IC-Gmail" stroke="none" stroke-width="1" fill="none" fill-rule="evenodd">
        <g id="Group">
            <rect id="Rectangle" x="0" y="0" width="18" height="18"></rect>
            <g id="mail-copy" transform="translate(0.000000, 3.000000)" fill="#C1351F" fill-rule="nonzero" stroke="#C1351F" stroke-width="0.5">
                <path d="M16.5489488,13 L1.45105121,13 C0.651231781,13 0,12.339003 0,11.5258765 L0,1.47412346 C0,0.660996961 0.651231781,0 1.45105121,0 L16.5489488,0 C17.3487682,0 18,0.660996961 18,1.47412346 L18,11.5258765 C18,12.339003 17.3487682,13 16.5489488,13 Z M1.45105121,0.589649385 C0.971043467,0.589649385 0.580420482,0.986483422 0.580420482,1.47412346 L0.580420482,11.5258765 C0.580420482,12.0135166 0.971043467,12.4103506 1.45105121,12.4103506 L16.5489488,12.4103506 C17.0289565,12.4103506 17.4195795,12.0135166 17.4195795,11.5258765 L17.4195795,1.47412346 C17.4195795,0.986483422 17.0289565,0.589649385 16.5489488,0.589649385 L1.45105121,0.589649385 Z" id="Shape"></path>
                <path d="M9.00091309,9 C8.59610891,9 8.19130473,8.86052839 7.88328831,8.58221626 L0.104351983,1.55373051 C-0.022263461,1.43887154 -0.0356554791,1.24007716 0.0751330342,1.10880976 C0.185921547,0.976280172 0.378279626,0.963658306 0.504895069,1.07788619 L8.28322267,8.10637193 C8.67280865,8.45789088 9.33023499,8.45725979 9.71860352,8.10637193 L17.4951049,1.07851728 C17.6211116,0.963027213 17.812861,0.976280172 17.924867,1.10944085 C18.0356555,1.24070825 18.0222635,1.43950263 17.895648,1.55436161 L10.1185379,8.58158516 C9.81052146,8.86052839 9.40571728,9 9.00091309,9 Z" id="Path"></path>
            </g>
        </g>
    </g>
</svg>