<?xml version="1.0" encoding="UTF-8"?>
<svg width="18px" height="18px" viewBox="0 0 18 18" version="1.1" xmlns="http://www.w3.org/2000/svg" xmlns:xlink="http://www.w3.org/1999/xlink">
    <title>IC-phone</title>
    <g id="IC-phone" stroke="none" stroke-width="1" fill="none" fill-rule="evenodd">
        <g id="Group">
            <rect id="Rectangle" x="0" y="0" width="18" height="18"></rect>
            <path d="M17.5276793,14.1148804 L13.8844233,11.8200671 C13.4220396,11.5311838 12.8023388,11.6262541 12.4605257,12.0384977 L11.3992411,13.3272518 C11.2628626,13.4971271 11.0149267,13.5463624 10.8176736,13.4428595 L10.615775,13.3377245 C9.94657019,12.9932135 9.1139468,12.5643088 7.43628937,10.9791909 C5.75861113,9.39407296 5.3035768,8.60698837 4.9388144,7.97611022 L4.82812381,7.78543908 C4.71701029,7.59912023 4.76819212,7.36396051 4.94809812,7.23411264 L6.31170352,6.23205888 C6.74794854,5.9091869 6.84875913,5.3239942 6.54327669,4.88717381 L4.11360967,1.44608336 C3.80052136,1.00126366 3.17236876,0.867731237 2.68767365,1.14292999 L1.16419263,2.00730378 C0.685501781,2.27310634 0.334307905,2.70358191 0.184249881,3.20852925 C-0.364351103,5.0965054 0.0483566478,8.35482752 5.13021586,13.1552683 C9.17274143,16.9731794 12.1821526,17.999957 14.250711,17.999957 C14.7267534,18.0018161 15.2009237,17.9433322 15.6604647,17.8259564 C16.1951629,17.6843709 16.6510293,17.3526448 16.9322451,16.9004145 L17.8483457,15.4623224 C18.1401695,15.0043798 17.998799,14.4107682 17.5276793,14.1148804 Z M17.3314661,15.171603 L16.4175148,16.6105792 C16.2156163,16.937001 15.8877392,17.176989 15.5026621,17.2802879 C13.6573568,17.7588359 10.4334285,17.3624374 5.55462568,12.7544495 C0.675836721,8.14639359 0.256238629,5.10161934 0.762870791,3.35842486 C0.87240351,2.99428773 1.12682892,2.68422781 1.47285054,2.49318945 L2.99633155,1.62994725 C3.2066402,1.51042518 3.47927253,1.56836029 3.6151311,1.76138575 L4.93495253,3.63293201 L6.04269732,5.20217766 C6.17535962,5.39165192 6.13176979,5.64560809 5.94251766,5.78581306 L4.57862106,6.78786682 C4.16355736,7.08763085 4.04503212,7.63002829 4.30058073,8.06050385 L4.40887932,8.24636027 C4.7922369,8.91042465 5.26884775,9.73654385 7.00891901,11.3798056 C8.7489764,13.0229994 9.62333843,13.4731895 10.3261006,13.8352457 L10.5231458,13.9377966 C10.9788734,14.1791447 11.553161,14.0672092 11.8705688,13.675163 L12.9315067,12.3869529 C13.0799492,12.208305 13.3487544,12.1671623 13.5494049,12.2923586 L17.1923835,14.587172 C17.3968474,14.7153605 17.4582074,14.9730297 17.3314661,15.171603 Z" id="Shape" stroke="#C1351F" stroke-width="0.5" fill="#C1351F" fill-rule="nonzero"></path>
        </g>
    </g>
</svg>