<?xml version="1.0" encoding="UTF-8"?>
<svg width="200px" height="60px" viewBox="0 0 200 60" version="1.1" xmlns="http://www.w3.org/2000/svg" xmlns:xlink="http://www.w3.org/1999/xlink">
    <!-- Generator: Sketch 64 (93537) - https://sketch.com -->
    <title>Logo</title>
    <desc>Created with Sketch.</desc>
    <g id="Logo" stroke="none" stroke-width="1" fill="none" fill-rule="evenodd">
        <g id="Logo-Copy" fill="#C1351F">
            <path d="M15.0197253,4.07322458 C23.8760246,-1.04482581 34.7389522,-1.35957223 43.8823341,3.24139477 C40.4422595,1.84067548 36.7514794,1.11636774 33.0312044,1.12223258 C17.2593622,1.12223258 4.47927396,13.8342733 4.47927396,29.5090358 C4.47927396,45.1837982 17.2652612,57.8958389 33.0312044,57.8958389 C40.38327,57.9017038 47.4531688,55.0816932 52.7622292,50.0222912 C47.2319579,56.1921029 39.1759503,60.074627 30.2124866,60.074627 C13.5263062,60.074627 -7.48613049e-12,46.6265488 -7.48613049e-12,30.0378488 C-7.48613049e-12,18.9581886 6.03168256,9.28022505 15.0197253,4.07322458 Z M50.9054345,33.7663231 C49.1790067,42.0074008 41.8279243,48.1938296 33.0315977,48.1938296 C24.2342879,48.1938296 16.8891044,42.0074008 15.1567777,33.7663231 L15.1567777,33.7663231 Z M184.666426,36.9828946 C185.500145,37.0004892 186.174592,37.6915628 186.174592,38.5233926 L186.174592,40.0247917 C186.174592,40.4040513 186.009422,40.7031582 185.732171,40.8253423 L184.584824,41.351223 L184.584824,38.691518 C184.584824,38.5576042 184.47176,38.4510596 184.328219,38.4510596 C184.193526,38.4510596 184.085379,38.5595591 184.085379,38.691518 L184.085379,45.861285 C184.085379,46.0039961 184.19156,46.115428 184.328219,46.115428 C184.476676,46.115428 184.584824,46.007906 184.584824,45.861285 L184.584824,44.5426734 C184.584824,44.0451395 184.846344,43.8261855 185.00365,43.7391903 C185.070504,43.7059562 185.256321,43.624826 185.45197,43.5397858 L186.174592,43.2230844 L186.174592,46.043095 C186.174592,46.8729699 185.516859,47.5493814 184.679207,47.5845704 L184.046052,47.5845704 C183.183822,47.5845704 182.481846,46.8934968 182.481846,46.043095 L182.481846,38.5233926 C182.481846,37.6739683 183.183822,36.9828946 184.046052,36.9828946 L184.666426,36.9828946 Z M160.61068,37.081033 C161.45718,37.081033 162.145391,37.7662418 162.145391,38.6078463 L162.145391,41.6380137 C162.149324,41.7025269 162.168004,42.2088581 161.932046,42.5353342 C162.158173,42.8882021 162.147383,43.3749838 162.145391,43.4453619 L162.145391,47.4862366 L160.541859,47.4862366 L160.541859,43.6017576 C160.541859,43.2635518 160.393402,43.2635518 160.313766,43.2635518 L160.071908,43.2635518 L160.071908,47.4862366 L158.467392,47.4862366 L158.467392,37.081033 L160.61068,37.081033 Z M129.170227,37.081033 C129.626413,37.081033 129.873186,37.4339008 129.873186,37.7662418 L129.873186,47.4862366 L128.859549,47.4862366 C128.550837,47.4862366 128.332575,47.3200662 128.274569,47.0414863 L128.26867,37.081033 L129.170227,37.081033 Z M194.557402,37.0804465 L194.025513,38.2260452 C193.979304,38.3277025 193.781689,38.675683 193.222272,38.675683 L192.457374,38.675683 L192.457374,41.2474153 L194.139559,41.2474153 L193.783656,42.0557858 C193.713851,42.2209788 193.650929,42.3656448 193.627333,42.413541 C193.513287,42.615878 193.29011,42.8426518 192.827042,42.8426518 L192.457374,42.8426518 L192.457374,45.9050758 L194.732404,45.9050758 L194.415827,46.6166763 C194.330292,46.814126 194.247707,47.0027783 194.218212,47.0584943 C194.125795,47.2246648 193.904584,47.4856501 193.405139,47.4856501 L190.852858,47.4856501 L190.852858,37.6542233 C190.884319,37.3150401 191.14289,37.0804465 191.458484,37.0804465 L194.557402,37.0804465 Z M65.2453051,37.0804465 C65.7565479,37.0804465 65.954163,37.482188 65.9875904,37.6933223 L66.8596527,41.8954801 L67.6933718,37.6669305 C67.8103678,37.279851 68.076804,37.0804465 68.4336908,37.0804465 L69.3490122,37.0804465 L69.3490122,47.4856501 L67.7582604,47.4856501 L67.7582604,44.7604545 L67.5262348,45.7887564 L66.9795982,45.7887564 C66.195037,45.7887564 66.0062704,45.052719 65.9453145,44.8103056 L65.9197524,44.703761 L65.9197524,47.4856501 L64.3299837,47.4856501 L64.3299837,37.0804465 L65.2453051,37.0804465 Z M82.36732,37.0804465 L82.36732,39.2201356 L83.1056726,37.1087932 L84.7898246,37.1087932 L83.0879758,41.827057 L84.8871574,47.4856501 L83.2098875,47.4856501 L82.36732,44.7526347 L82.36732,47.4856501 L80.7765681,47.4856501 L80.7765681,37.7519707 C80.7765681,37.3844407 80.9997453,37.1283427 81.3585985,37.0833789 L82.36732,37.0804465 Z M92.6545094,37.0804465 L92.1226202,38.2260452 C92.0773949,38.3277025 91.8787967,38.675683 91.319379,38.675683 L90.5554642,38.675683 L90.5554642,41.2474153 L92.2366667,41.2474153 L91.886662,42.0440561 C91.812925,42.2151139 91.7470533,42.3656448 91.7224744,42.4145185 C91.6113774,42.6149005 91.3882002,42.8426518 90.924149,42.8426518 L90.5554642,42.8426518 L90.5554642,45.9050758 L92.8295118,45.9050758 L92.5129345,46.6166763 C92.4273996,46.814126 92.3448142,47.0027783 92.3153194,47.0584943 C92.2229025,47.2246648 92.0016916,47.4856501 91.5022467,47.4856501 L88.949965,47.4856501 L88.949965,37.6542233 C88.9814261,37.3150401 89.239997,37.0804465 89.5555912,37.0804465 L92.6545094,37.0804465 Z M175.152295,37.0807397 C175.906378,37.0807397 176.087279,37.4990983 176.161016,37.8636959 L176.622118,40.1206818 L176.622118,37.0807397 L178.225651,37.0807397 L178.225651,47.4859434 L177.466652,47.4859434 C176.94951,47.4859434 176.625067,47.1985662 176.504139,46.6335866 L175.997812,44.3687809 L175.997812,47.4859434 L174.393296,47.4859434 L174.393296,37.0807397 L175.152295,37.0807397 Z M74.7732989,37.0804465 C75.477241,37.0804465 75.5667085,37.6483585 75.6001359,37.8614477 L77.0778244,47.4856501 L75.3631945,47.4856501 L74.731023,42.6872335 L74.0998347,47.4856501 L72.3852048,47.4856501 L73.9710409,37.0804465 L74.7732989,37.0804465 Z M106.171967,37.0804465 C106.875909,37.0804465 106.965377,37.6483585 106.998804,37.8614477 L108.47551,47.4856501 L106.76088,47.4856501 L106.129691,42.6872335 L105.498503,47.4856501 L103.783873,47.4856501 L105.369709,37.0804465 L106.171967,37.0804465 Z M146.822558,37.0804465 L146.666236,37.4792556 C146.563987,37.740241 146.374238,38.1468699 146.329995,38.233865 C146.168757,38.5261295 145.894456,38.675683 145.53167,38.675683 L144.457077,38.675683 L144.457077,41.387194 L146.428311,41.387194 L145.897405,42.5318153 C145.729285,42.8328771 145.455967,42.9824305 145.094164,42.9824305 L144.41775,42.9824305 L144.457077,46.8991661 C144.457077,47.2227098 144.191624,47.4856501 143.867181,47.4856501 L142.866325,47.4856501 L142.866325,37.667908 C142.866325,37.3443643 143.131778,37.0804465 143.457204,37.0804465 L146.822558,37.0804465 Z M154.603183,37.0804465 L154.071294,38.2260452 C154.026068,38.3277025 153.828453,38.675683 153.269036,38.675683 L152.504138,38.675683 L152.504138,41.2474153 L154.186323,41.2474153 L153.836319,42.0440561 C153.762582,42.2151139 153.69671,42.3656448 153.672131,42.4145185 C153.561034,42.6149005 153.337857,42.8426518 152.872822,42.8426518 L152.504138,42.8426518 L152.504138,45.9050758 L154.779168,45.9050758 L154.462591,46.6166763 C154.377056,46.814126 154.293488,47.0027783 154.263993,47.0584943 C154.171576,47.2246648 153.951348,47.4856501 153.451903,47.4856501 L150.899622,47.4856501 L150.899622,37.6542233 C150.931083,37.3150401 151.189654,37.0804465 151.505248,37.0804465 L154.603183,37.0804465 Z M170.585225,37.0804465 L170.053335,38.2260452 C170.00811,38.3277025 169.809512,38.675683 169.250094,38.675683 L168.486179,38.675683 L168.486179,41.2474153 L170.167382,41.2474153 L169.817377,42.0440561 C169.74364,42.2151139 169.677768,42.3656448 169.654173,42.4145185 C169.542092,42.6149005 169.318915,42.8426518 168.854864,42.8426518 L168.486179,42.8426518 L168.486179,45.9050758 L170.760227,45.9050758 L170.44365,46.6166763 C170.358115,46.814126 170.275529,47.0027783 170.246035,47.0584943 C170.153618,47.2246648 169.932407,47.4856501 169.432962,47.4856501 L166.881663,47.4856501 L166.881663,37.6542233 C166.912141,37.3150401 167.170712,37.0804465 167.487289,37.0804465 L170.585225,37.0804465 Z M138.832422,37.0804465 L138.6761,37.4792556 C138.573851,37.740241 138.384102,38.1468699 138.339859,38.233865 C138.178621,38.5261295 137.90432,38.675683 137.541534,38.675683 L136.466941,38.675683 L136.466941,41.387194 L138.438175,41.387194 L137.907269,42.5318153 C137.739149,42.8328771 137.465831,42.9824305 137.104028,42.9824305 L136.427614,42.9824305 L136.466941,46.8991661 C136.466941,47.2227098 136.201488,47.4856501 135.877045,47.4856501 L134.876189,47.4856501 L134.876189,37.667908 C134.876189,37.3443643 135.141642,37.0804465 135.467068,37.0804465 L138.832422,37.0804465 Z M122.138573,37.0804465 C122.989989,37.0804465 123.671319,37.7490382 123.688032,38.601395 L123.688032,45.9598143 C123.671319,46.8180359 122.989989,47.4856501 122.138573,47.4856501 L119.883206,47.4856501 L119.883206,37.0804465 L122.138573,37.0804465 Z M121.856407,38.675683 L121.487722,38.675683 L121.487722,45.9050758 L121.856407,45.9050758 C122.079584,45.9050758 122.098264,45.7926663 122.098264,45.6783019 L122.098264,38.8887721 C122.098264,38.8095968 122.098264,38.675683 121.856407,38.675683 Z M160.313766,38.6058914 L160.071908,38.6058914 L160.071908,41.7240313 L160.313766,41.7240313 C160.455341,41.7240313 160.541859,41.7113242 160.541859,41.4562036 L160.541859,38.8180031 C160.541859,38.7437151 160.541859,38.6058914 160.313766,38.6058914 Z M38.4356313,25.7745989 L39.056988,25.7804637 C39.1051628,25.7745989 39.1464555,25.8039231 39.1592366,25.8576841 L39.1592366,29.2006429 C39.1592366,30.0197656 38.9852174,30.6375287 38.6450442,31.0646846 C38.303888,31.4859756 37.8270557,31.7000422 37.2233958,31.7000422 L35.6051156,31.7000422 C34.9896578,31.7000422 34.5128255,31.4801107 34.1657703,31.04709 C33.8196982,30.6130919 33.6466622,30.0021711 33.6466622,29.2299671 L33.6466622,25.8870083 C33.6338811,25.8400896 33.664359,25.7980582 33.7115507,25.7921934 L34.3633853,25.7921934 C34.410577,25.7804637 34.4646507,25.8156528 34.4705497,25.8635489 L34.4705497,29.3189172 C34.4705497,29.7763747 34.577714,30.1380398 34.7930259,30.3941379 C34.9837589,30.6433936 35.2826393,30.7861047 35.5992166,30.7792624 L37.2174969,30.7792624 C37.5340742,30.7861047 37.8388536,30.6433936 38.0295865,30.3872955 C38.2448984,30.1263102 38.3461638,29.7705099 38.3461638,29.3071875 L38.3461638,25.8694138 C38.3343659,25.8215176 38.3648438,25.7804637 38.4120355,25.7745989 L38.4356313,25.7745989 Z M24.7967533,25.7802682 C25.405329,25.7802682 25.8762623,25.9943349 26.2174186,26.4214907 C26.5585749,26.8486466 26.7306278,27.4664097 26.7306278,28.2738027 L26.7306278,31.599167 C26.7365267,31.6460857 26.7070319,31.6881171 26.6588571,31.6998467 L26.6352613,31.6998467 L26.0080056,31.6939819 C25.960814,31.6998467 25.9244371,31.6646577 25.9185381,31.6167615 L25.9185381,28.1496636 C25.9185381,27.6922061 25.8113738,27.3305409 25.6019608,27.0744429 C25.405329,26.8251872 25.1064485,26.6834536 24.7898712,26.6883409 L23.1715909,26.6883409 C22.8550136,26.6883409 22.5502342,26.8310521 22.3595013,27.0803078 C22.1382905,27.3412931 22.0311261,27.6980709 22.0311261,28.1496636 L22.0311261,31.5933022 C22.0370251,31.6460857 21.9947492,31.6881171 21.9475576,31.6939819 L21.308504,31.6939819 C21.2603292,31.6998467 21.2249354,31.6646577 21.2190365,31.6167615 L21.2190365,28.262073 C21.2190365,27.4722746 21.3920725,26.8672186 21.7381446,26.4332204 C22.0851999,26.0001997 22.5620322,25.7802682 23.1774899,25.7802682 L24.7967533,25.7802682 Z M44.9987115,25.7746966 C45.0468863,25.7688318 45.08228,25.8040208 45.088179,25.851917 L45.088179,25.9174077 L42.8849189,31.5398344 C42.8308451,31.6405141 42.7895524,31.6942751 42.7531756,31.6942751 L41.9410859,31.6942751 C41.9056922,31.6942751 41.8634163,31.646379 41.8093426,31.551564 L39.6119815,25.9222951 L39.6119815,25.8812412 C39.6060825,25.8343225 39.6355773,25.7922911 39.689651,25.7805615 L40.3699973,25.7805615 C40.4122732,25.7805615 40.460448,25.8343225 40.5145217,25.9467319 L42.3412318,30.5780006 L44.174824,25.9408671 C44.2288977,25.8343225 44.2642915,25.7746966 44.2947694,25.7746966 L44.9987115,25.7746966 Z M18.6150407,25.7689295 C18.8657463,25.7620872 19.110553,25.8099834 19.3435617,25.8989335 C19.5588736,25.9878836 19.7614045,26.1130001 19.9285415,26.2733058 C20.1320555,26.4688004 20.2805126,26.7063265 20.3768622,26.9682893 C20.4791108,27.2527341 20.5253193,27.5557508 20.5253193,27.8587675 L20.5253193,28.6896199 C20.5381003,28.737516 20.5017234,28.7902996 20.4545318,28.7961644 L15.7776428,28.7961644 L15.7776428,29.3552792 C15.7776428,30.3161355 16.1374791,30.7980298 16.8473202,30.7980298 L18.8470663,30.7980298 C19.1695425,30.7980298 19.4094334,30.7081023 19.5588736,30.5243373 C19.7073307,30.3405723 19.7850003,30.0316907 19.7850003,29.5986701 L19.7850003,29.1294829 C19.8813499,29.1167757 19.9580363,29.105046 20.0189922,29.0991812 C20.0779818,29.0933163 20.1261566,29.0933163 20.1733482,29.0933163 L20.3473674,29.0933163 C20.4722287,29.0933163 20.5312182,29.1294829 20.5312182,29.1998609 L20.5312182,29.8889796 C20.5381003,30.1509425 20.4958245,30.406063 20.4181549,30.6494539 C20.3404853,30.8684079 20.2156241,31.0707449 20.048487,31.2369154 C19.7614045,31.5457969 19.3907534,31.6943729 18.9375169,31.6943729 L16.8718991,31.6943729 C15.6055899,31.6943729 14.9724353,30.9514932 14.9724353,29.4618238 L14.9724353,28.0835864 C14.9724353,27.3895803 15.1454713,26.8255782 15.4974424,26.39158 C15.8798914,25.9761539 16.328212,25.7689295 16.8473202,25.7689295 L18.6150407,25.7689295 Z M31.0431579,25.768343 C31.6340367,25.768343 32.1059531,25.9638377 32.4520252,26.3499397 C32.6437413,26.5640063 32.7745015,26.8191269 32.8462721,27.0928194 C32.9298407,27.4251603 32.9721165,27.7633661 32.9662176,28.1074367 L32.9662176,29.3664224 C32.9662176,30.1386263 32.7980973,30.720223 32.4579242,31.1063249 C32.1167679,31.4973143 31.6458346,31.6937864 31.0431579,31.6937864 L29.3521238,31.6937864 C28.057303,31.6937864 27.4054683,30.9157176 27.4054683,29.3664224 L27.4054683,28.1074367 C27.4054683,27.3303454 27.5726054,26.7360416 27.9127786,26.33821 C28.0926967,26.1603098 28.3070255,26.0175987 28.5410174,25.916919 C28.797622,25.8152618 29.0778224,25.7624782 29.3521238,25.768343 L31.0431579,25.768343 Z M49.1500035,25.768343 C49.7408823,25.768343 50.2127987,25.9638377 50.5588708,26.3499397 C50.7505869,26.5640063 50.8813471,26.8191269 50.9531177,27.0928194 C51.0366863,27.4251603 51.0789621,27.7633661 51.0730632,28.1074367 L51.0730632,29.3664224 C51.0730632,30.1386263 50.9059261,30.720223 50.5647698,31.1063249 C50.2236135,31.4973143 49.7526802,31.6937864 49.1500035,31.6937864 L47.4599526,31.6937864 C46.1641486,31.6937864 45.5123139,30.9157176 45.5123139,29.3664224 L45.5123139,28.1074367 C45.5123139,27.3303454 45.679451,26.7360416 46.0206073,26.33821 C46.1995423,26.1603098 46.413871,26.0175987 46.647863,25.916919 C46.9044676,25.8152618 47.184668,25.7624782 47.4599526,25.768343 L49.1500035,25.768343 Z M150.679099,11.5922427 C150.901293,11.5922427 151.011407,11.7046522 151.011407,11.9265386 L151.011407,23.1772567 C151.011407,25.9493711 150.439208,28.0528937 149.293828,29.4888021 C148.148447,30.9247104 146.553762,31.6421758 144.508791,31.6421758 L139.076836,31.6421758 C137.008268,31.6421758 135.394904,30.9071159 134.236742,29.436996 C133.079564,27.9668761 132.500483,25.9102722 132.500483,23.2662068 L132.500483,11.9627051 C132.500483,11.7408187 132.598799,11.6293867 132.796414,11.6293867 L134.902341,11.6293867 C135.148131,11.6293867 135.272009,11.7408187 135.272009,11.9627051 L135.272009,23.6005027 C135.272009,25.1566402 135.634795,26.3735945 136.36135,27.2503881 C137.087904,28.1281592 137.993394,28.5660672 139.076836,28.5660672 L144.508791,28.5660672 C145.617795,28.5660672 146.5282,28.1271817 147.242957,27.2474557 C147.956731,26.3687072 148.314601,25.1488204 148.314601,23.588773 L148.314601,11.9265386 C148.314601,11.7046522 148.411934,11.5922427 148.610532,11.5922427 L150.679099,11.5922427 Z M121.896814,11.5551965 C123.891645,11.5551965 125.468632,12.2101036 126.625811,13.5199179 C127.241269,14.211969 127.685657,15.0516186 127.956025,16.0398442 C128.226394,17.0280697 128.363053,18.1775783 128.363053,19.4864151 L128.363053,23.7481989 C128.363053,26.3678274 127.789871,28.3384137 126.644491,29.6589802 C125.49911,30.9815016 123.917207,31.6422736 121.896814,31.6422736 L116.207271,31.6422736 C111.84696,31.6422736 109.666312,29.0109153 109.666312,23.7481989 L109.666312,19.4864151 C109.666312,16.8423498 110.233595,14.8414618 111.367178,13.4827739 C111.982636,12.8650108 112.684611,12.3889812 113.473105,12.0556628 C114.260616,11.7223444 115.172004,11.5551965 116.207271,11.5551965 L121.896814,11.5551965 Z M188.291826,11.5551965 C190.286656,11.5551965 191.863644,12.2101036 193.020822,13.5199179 C193.63628,14.211969 194.080668,15.0516186 194.35202,16.0398442 C194.622389,17.0280697 194.758065,18.1775783 194.758065,19.4864151 L194.758065,23.7481989 C194.758065,26.3678274 194.185866,28.3384137 193.039502,29.6589802 C191.894122,30.9815016 190.312218,31.6422736 188.291826,31.6422736 L182.602283,31.6422736 C178.241971,31.6422736 176.062307,29.0109153 176.062307,23.7481989 L176.062307,19.4864151 C176.062307,16.8423498 176.628607,14.8414618 177.762189,13.4827739 C178.377647,12.8650108 179.079623,12.3889812 179.868117,12.0556628 C180.655627,11.7223444 181.567999,11.5551965 182.602283,11.5551965 L188.291826,11.5551965 Z M76.4513553,11.555783 C77.362744,11.555783 78.1817157,11.7043589 78.9082704,12.0005333 C79.6348252,12.2967078 80.293542,12.7170213 80.8854039,13.2604965 C81.5500196,13.9036739 82.0494645,14.6866301 82.3807892,15.6142523 C82.7140803,16.5399195 82.8802342,17.5467171 82.8802342,18.6336674 L82.8802342,21.4507456 C82.8802342,21.6980463 82.7691372,21.821208 82.5469432,21.821208 L66.9186423,21.821208 L66.9186423,23.7116414 C66.9186423,26.9724924 68.1131809,28.602918 70.5022581,28.602918 L77.227068,28.602918 C78.3105096,28.602918 79.1049023,28.2950139 79.6102462,27.6762732 C80.114607,27.0594876 80.3682621,26.0087037 80.3682621,24.5268542 L80.3682621,22.9325951 C80.6877889,22.8837215 80.9453766,22.8534198 81.1439748,22.8407126 C81.3406067,22.8280055 81.5136427,22.8221407 81.6611166,22.8221407 L82.2529785,22.8221407 C82.6698381,22.8221407 82.8802342,22.9462798 82.8802342,23.1926031 L82.8802342,25.5277869 C82.8802342,26.4915756 82.7504572,27.3497972 82.4928694,28.1024516 C82.2333153,28.857061 81.8203884,29.517833 81.2540886,30.085745 C80.293542,31.1238217 79.0498454,31.64286 77.5229989,31.64286 L70.5769782,31.64286 C66.3149824,31.64286 64.1844761,29.1219563 64.1844761,24.0821038 L64.1844761,19.4117362 C64.1844761,17.0648227 64.7753549,15.1499524 65.9571124,13.6681029 C67.2381691,12.2595638 68.7532176,11.555783 70.5022581,11.555783 L76.4513553,11.555783 Z M156.923242,11.5927315 C157.070716,11.5927315 157.230971,11.7774739 157.404007,12.1479363 L163.573332,27.8627752 L169.744623,12.1479363 C169.915693,11.7774739 170.051369,11.5927315 170.150668,11.5927315 L172.515166,11.5927315 C172.711798,11.5927315 172.811097,11.7041634 172.811097,11.9260499 L172.811097,12.0746258 L165.384312,31.1236262 C165.211276,31.4696518 165.063802,31.6426646 164.940907,31.6426646 L162.206741,31.6426646 C162.083846,31.6426646 161.935389,31.4823589 161.763336,31.1607702 L154.37391,12.0746258 L154.37391,11.9260499 C154.37391,11.7041634 154.484024,11.5927315 154.706218,11.5927315 L156.923242,11.5927315 Z M99.0256769,11.592536 C101.070648,11.592536 102.665333,12.3158662 103.810713,13.7605718 C104.956094,15.2062549 105.528293,17.3000028 105.528293,20.042793 L105.528293,31.3091507 C105.528293,31.5310371 105.418179,31.6424691 105.195985,31.6424691 L103.127418,31.6424691 C102.929803,31.6424691 102.831487,31.5310371 102.831487,31.3091507 L102.831487,19.6342091 C102.831487,18.0780716 102.4746,16.8611173 101.759843,15.9843237 C101.046069,15.1075301 100.134681,14.6686446 99.0256769,14.6686446 L93.5947047,14.6686446 C92.5102799,14.6686446 91.5988912,15.1133949 90.8605386,16.0028957 C90.1212027,16.8923964 89.752518,18.1025084 89.752518,19.6342091 L89.752518,31.3091507 C89.752518,31.5310371 89.6286399,31.6424691 89.3828501,31.6424691 L87.3132997,31.6424691 C87.1166678,31.6424691 87.0173687,31.5310371 87.0173687,31.3091507 L87.0173687,20.005649 C87.0173687,17.3371468 87.5964496,15.2678357 88.7546113,13.7977158 C89.912773,12.3275959 91.5251543,11.592536 93.5947047,11.592536 L99.0256769,11.592536 Z M30.9890841,26.6646861 L29.4179955,26.6646861 C28.6245859,26.6646861 28.2293559,27.145603 28.2293559,28.1074367 L28.2293559,29.3664224 C28.2293559,30.3282562 28.6245859,30.809173 29.4179955,30.809173 L30.9890841,30.809173 C31.7834769,30.809173 32.1777238,30.3282562 32.1777238,29.3664224 L32.1777238,28.0957071 C32.1777238,27.1397381 31.7834769,26.6646861 30.9890841,26.6646861 Z M49.0959297,26.6646861 L47.5189421,26.6646861 C46.7255326,26.6646861 46.3312857,27.145603 46.3312857,28.1074367 L46.3312857,29.3664224 C46.3312857,30.3282562 46.7255326,30.809173 47.5189421,30.809173 L49.0900308,30.809173 C49.8844235,30.809173 50.2776873,30.3282562 50.2776873,29.3664224 L50.2845694,28.0957071 C50.2845694,27.1397381 49.8903225,26.6646861 49.0959297,26.6646861 Z M188.106992,14.5941611 L182.823494,14.5941611 C180.163065,14.5941611 178.833833,16.2255641 178.833833,19.4864151 L178.833833,23.7481989 C178.833833,27.0100274 180.163065,28.6404529 182.823494,28.6404529 L188.106992,28.6404529 C190.767421,28.6404529 192.097636,27.0100274 192.097636,23.7481989 L192.097636,19.4492712 C192.097636,16.2128569 190.767421,14.5941611 188.106992,14.5941611 Z M121.71198,14.5941611 L116.428482,14.5941611 C113.768053,14.5941611 112.438821,16.2255641 112.438821,19.4864151 L112.438821,23.7481989 C112.438821,27.0100274 113.768053,28.6404529 116.428482,28.6404529 L121.71198,28.6404529 C124.37241,28.6404529 125.702624,27.0100274 125.702624,23.7481989 L125.702624,19.4492712 C125.702624,16.2128569 124.37241,14.5941611 121.71198,14.5941611 Z M18.6986092,26.6652726 L16.7519537,26.6652726 C16.482568,26.6652726 16.2564414,26.7835468 16.0765232,27.015208 C15.8975882,27.2468692 15.8022218,27.5381563 15.7845249,27.8880917 L19.7427244,27.8880917 C19.7201118,27.5137194 19.6129474,27.217545 19.4212313,26.9976135 C19.2422963,26.7835468 18.9788096,26.6594077 18.6986092,26.6652726 Z M33.0256004,11.8805974 C41.0452311,11.8805974 47.8536096,17.0162423 50.3085585,24.1596174 L50.3085585,24.1596174 L15.7426423,24.1596174 C16.1368892,23.0140187 16.6441994,21.9026315 17.2655561,20.85869 C20.436245,15.4845416 26.3066895,11.8805974 33.0256004,11.8805974 Z M76.7099262,14.5947476 L70.1709334,14.5947476 C69.2585615,14.5947476 68.5005457,14.9896468 67.897869,15.7804227 C67.2942091,16.5711987 66.9678002,17.5594242 66.9186423,18.7450994 L80.219805,18.7450994 C80.1460681,17.4851362 79.7822991,16.4783387 79.1304645,15.7247068 C78.4776467,14.9710748 77.6704728,14.5947476 76.7099262,14.5947476 Z" id="Combined-Shape"></path>
        </g>
    </g>
</svg>