<svg xmlns="http://www.w3.org/2000/svg" width="70" height="71" viewBox="0 0 70 71">
    <g fill="none" fill-rule="evenodd">
        <g fill="#C1351F" fill-rule="nonzero">
            <path d="M57.726 29.136c.736 0 1.333-.596 1.333-1.332 0-.735-.597-1.332-1.333-1.332h-5.05v-3.625h5.05c.736 0 1.333-.596 1.333-1.332 0-.735-.597-1.331-1.333-1.331h-5.05v-2.18c0-.352-.14-.69-.39-.94L48.43 13.21c-.25-.25-.589-.39-.943-.39h-2.181V7.778c0-.735-.597-1.332-1.334-1.332-.736 0-1.333.597-1.333 1.332v5.04h-3.63V7.78c0-.735-.597-1.332-1.333-1.332s-1.333.597-1.333 1.332v5.04h-3.627V8.047C32.716 3.61 29.102 0 24.66 0c-3.634 0-6.793 2.454-7.757 5.863-2.77.281-5.337 1.505-7.318 3.508-2.237 2.263-3.47 5.26-3.47 8.441 0 1.579.313 3.142.91 4.591-1.87.994-3.476 2.422-4.693 4.188C.806 28.802 0 31.395 0 34.089c0 4.96 2.715 9.408 7.024 11.69-.597 1.446-.909 3.008-.909 4.587 0 3.18 1.232 6.178 3.47 8.44 1.98 2.004 4.547 3.228 7.317 3.509.964 3.411 4.123 5.867 7.758 5.867 4.442 0 8.056-3.61 8.056-8.047v-4.776h3.627v5.044c0 .735.597 1.332 1.333 1.332s1.333-.597 1.333-1.332v-5.044h3.63v5.044c0 .735.597 1.332 1.334 1.332.736 0 1.333-.597 1.333-1.332v-5.044h2.181c.354 0 .693-.14.943-.39l3.855-3.85c.25-.25.39-.589.39-.942v-2.183h5.05c.737 0 1.334-.596 1.334-1.331 0-.736-.597-1.332-1.333-1.332h-5.05V41.71h5.05c.736 0 1.333-.596 1.333-1.331 0-.736-.597-1.332-1.333-1.332h-5.05v-3.625h5.05c.736 0 1.333-.596 1.333-1.332 0-.735-.597-1.332-1.333-1.332h-5.05v-3.621h5.05zM24.66 65.518c-2.212 0-4.159-1.358-4.979-3.32.973-.174 1.92-.47 2.833-.887 1.325-.608 2.51-1.44 3.522-2.472.515-.525.506-1.369-.02-1.883-.527-.515-1.37-.506-1.886.02-.783.799-1.701 1.443-2.729 1.914-1.085.498-2.236.773-3.42.821-5.076-.083-9.2-4.268-9.2-9.346 0-1.604.413-3.185 1.194-4.571.188-.334.223-.733.095-1.095-.127-.361-.404-.65-.76-.794-4.036-1.618-6.644-5.472-6.644-9.816 0-4.345 2.608-8.197 6.643-9.813.792-.428 1.015-1.057.666-1.887-.78-1.39-1.194-2.973-1.194-4.577 0-5.077 4.124-9.262 9.2-9.346 1.176.048 2.328.324 3.42.822 1.03.471 1.947 1.116 2.727 1.916.262.267.608.402.955.402.336 0 .671-.126.93-.378.528-.514.538-1.357.025-1.883-1.01-1.035-2.196-1.869-3.528-2.48-.914-.416-1.861-.71-2.829-.884.82-1.96 2.767-3.318 4.979-3.318 2.972 0 5.39 2.415 5.39 5.384v16.327H25.9l-3.537-3.533c.376-.686.577-1.46.577-2.264 0-1.262-.492-2.449-1.386-3.341-1.844-1.842-4.844-1.842-6.688 0-.894.892-1.386 2.079-1.386 3.34 0 1.262.492 2.449 1.386 3.341.922.92 2.133 1.381 3.344 1.381.781 0 1.562-.192 2.266-.576l3.929 3.925c.284.254.598.384.942.39h4.703v5.72h-8.354c-.578-1.957-2.393-3.39-4.538-3.39-2.607 0-4.728 2.118-4.728 4.722 0 2.605 2.121 4.725 4.728 4.725 2.145 0 3.96-1.435 4.538-3.394h8.354v5.72h-4.703c-.035 0-.066.003-.094.005-.31.022-.612.15-.849.386l-3.929 3.928c-1.794-.977-4.093-.71-5.61.805-.894.894-1.386 2.08-1.385 3.344 0 1.26.493 2.445 1.386 3.334.922.92 2.133 1.381 3.344 1.381 1.211 0 2.422-.46 3.343-1.38.893-.89 1.386-2.074 1.387-3.335 0-.806-.2-1.58-.578-2.268l3.538-3.536h4.15v16.33c0 2.97-2.418 5.384-5.39 5.384zm-4.386-46.941c0 .55-.215 1.068-.605 1.457-.804.804-2.113.804-2.918 0-.39-.39-.604-.907-.604-1.457s.214-1.068.604-1.457c.805-.804 2.114-.804 2.918 0 .39.389.605.906.605 1.457zm-1.052 15.512c0 1.137-.926 2.062-2.064 2.062-1.137 0-2.061-.925-2.061-2.062 0-1.135.924-2.058 2.06-2.058 1.139 0 2.065.923 2.065 2.058zm1.052 15.517c0 .549-.215 1.064-.605 1.452-.804.804-2.113.804-2.92 0-.388-.388-.602-.903-.602-1.452 0-.55.214-1.068.604-1.458.805-.803 2.114-.804 2.918 0 .39.39.605.908.605 1.458zm29.735.02l-3.074 3.07H32.716v-3.947h12.009c.736 0 1.333-.596 1.333-1.331v-7.354c0-.735-.597-1.331-1.333-1.331-.737 0-1.334.596-1.334 1.331v6.022H32.716v-23.99h10.675v6.006c0 .736.597 1.332 1.334 1.332.736 0 1.333-.596 1.333-1.332v-7.338c0-.735-.597-1.332-1.333-1.332H32.716v-3.95h14.219l3.074 3.074v31.07z" transform="translate(5 1)"/>
            <path d="M44.654 32.65c-.795 0-1.44.645-1.44 1.44v.004c0 .795.645 1.437 1.44 1.437.796 0 1.44-.646 1.44-1.441s-.644-1.44-1.44-1.44z" transform="translate(5 1)"/>
        </g>
        <path d="M0 0H70V71H0z"/>
    </g>
</svg>
