<svg xmlns="http://www.w3.org/2000/svg" width="71" height="71" viewBox="0 0 71 71">
    <g fill="none" fill-rule="evenodd">
        <path d="M0 0H70V70H0z" transform="translate(.29 .29)"/>
        <g fill="#C1351F" fill-rule="nonzero">
            <path d="M31.609 0H5.449C2.443.004.005 2.45 0 5.469V64.53C.004 67.55 2.442 69.996 5.45 70h26.159c3.008-.004 5.446-2.45 5.45-5.469V5.47C37.055 2.45 34.617.004 31.609 0zm3.27 64.531c0 1.812-1.464 3.281-3.27 3.281H5.449c-1.805 0-3.27-1.469-3.27-3.28v-6.563h32.7v6.562zm0-8.75h-32.7v-43.75h32.7v43.75zm0-45.937h-32.7V5.469c0-1.812 1.465-3.282 3.27-3.282h26.16c1.806 0 3.27 1.47 3.27 3.282v4.375z" transform="translate(.29 .29) translate(16.47)"/>
            <path d="M18.941 59.294c-1.82 0-3.294 1.475-3.294 3.294 0 1.82 1.475 3.294 3.294 3.294 1.82 0 3.294-1.474 3.294-3.294s-1.475-3.294-3.294-3.294zm0 4.392c-.606 0-1.098-.491-1.098-1.098 0-.606.492-1.098 1.098-1.098.607 0 1.098.492 1.098 1.098 0 .607-.491 1.098-1.098 1.098zM22.812 5.765h-8.565c-.591 0-1.07.368-1.07.823 0 .455.479.824 1.07.824h8.565c.591 0 1.07-.369 1.07-.824 0-.455-.479-.823-1.07-.823zM31.02 51.059h-1.098c-.607 0-1.098.369-1.098.823 0 .455.491.824 1.098.824h1.098c.606 0 1.098-.369 1.098-.824 0-.454-.492-.823-1.098-.823zM27.725 51.059h-1.098c-.606 0-1.098.369-1.098.823 0 .455.492.824 1.098.824h1.098c.607 0 1.099-.369 1.099-.824 0-.454-.492-.823-1.099-.823zM22.784 51.059h-1.098c-.606 0-1.098.369-1.098.823 0 .455.492.824 1.098.824h1.098c.607 0 1.098-.369 1.098-.824 0-.454-.491-.823-1.098-.823z" transform="translate(.29 .29) translate(16.47)"/>
        </g>
    </g>
</svg>
