<?xml version="1.0" encoding="UTF-8"?>
<svg width="17px" height="11px" viewBox="0 0 17 11" version="1.1" xmlns="http://www.w3.org/2000/svg" xmlns:xlink="http://www.w3.org/1999/xlink">
    <title>australia</title>
    <g id="2.0.0-alpha-2-" stroke="none" stroke-width="1" fill="none" fill-rule="evenodd">
        <g id="enouvo-IT--Homepage-Copy-2" transform="translate(-693.000000, -4905.000000)" fill="#C1351F" fill-rule="nonzero">
            <g id="australia" transform="translate(693.000000, 4905.000000)">
                <path d="M16.2186641,0 L0.781335937,0 C0.350525391,0 0,0.345981617 0,0.771207675 L0,10.2287923 C0,10.6540512 0.350525391,11 0.781335937,11 L13.5571016,11 C13.6946289,11 13.806125,10.8899492 13.806125,10.7542046 C13.806125,10.61846 13.6946289,10.5084092 13.5571016,10.5084092 L0.781335937,10.5084092 C0.625115234,10.5084092 0.498046875,10.3829552 0.498046875,10.2287923 L0.498046875,5.7458118 L8.23384375,5.7458118 C8.51792969,5.7458118 8.74902344,5.51771366 8.74902344,5.23731025 L8.74902344,0.491590818 L16.2186641,0.491590818 C16.3748848,0.491590818 16.5019531,0.617044794 16.5019531,0.771207675 L16.5019531,10.2287923 C16.5019531,10.382988 16.3748516,10.5084092 16.2186641,10.5084092 L14.6215937,10.5084092 C14.4840664,10.5084092 14.3725703,10.61846 14.3725703,10.7542046 C14.3725703,10.8899492 14.4840664,11 14.6215937,11 L16.2186641,11 C16.6495078,11 17,10.6540184 17,10.2287923 L17,0.771207675 C17,0.345981617 16.6494746,0 16.2186641,0 L16.2186641,0 Z M5.28895898,3.77548303 L5.33252148,3.77548303 L7.65468164,5.25422098 L5.28895898,5.25422098 L5.28895898,3.77548303 Z M6.25121875,3.77548303 L7.435375,3.77548303 C7.57290234,3.77548303 7.68439844,3.66543223 7.68439844,3.52968762 C7.68439844,3.39394301 7.57290234,3.28389221 7.435375,3.28389221 L5.03993555,3.28389221 C4.9024082,3.28389221 4.79091211,3.39394301 4.79091211,3.52968762 L4.79091211,5.25422098 L3.95814453,5.25422098 L3.95814453,3.52968762 C3.95814453,3.39394301 3.84664844,3.28389221 3.70912109,3.28389221 L0.498046875,3.28389221 L0.498046875,2.46191959 L3.70908789,2.46191959 C3.84661523,2.46191959 3.95811133,2.35186879 3.95811133,2.21612418 L3.95811133,0.491590818 L4.79087891,0.491590818 L4.79087891,2.21612418 C4.79087891,2.35186879 4.902375,2.46191959 5.03990234,2.46191959 L8.25097656,2.46191959 L8.25097656,5.04893265 L6.25121875,3.77548303 Z M3.46006445,1.97032877 L3.41650195,1.97032877 L1.0943418,0.491590818 L3.46006445,0.491590818 L3.46006445,1.97032877 Z M2.49780469,1.97032877 L0.498046875,1.97032877 L0.498046875,0.771207675 C0.498046875,0.747512997 0.501367187,0.724604865 0.507044922,0.702581597 L2.49780469,1.97032877 Z M0.498046875,3.77548303 L2.49780469,3.77548303 L0.498046875,5.04893265 L0.498046875,3.77548303 Z M3.41650195,3.77548303 L3.46006445,3.77548303 L3.46006445,5.25422098 L1.0943418,5.25422098 L3.41650195,3.77548303 Z M5.28895898,1.97032877 L5.28895898,0.491590818 L7.65468164,0.491590818 L5.33255469,1.97032877 L5.28895898,1.97032877 Z M8.25097656,1.97032877 L6.25121875,1.97032877 L8.25097656,0.696879143 L8.25097656,1.97032877 Z" id="Shape"></path>
                <path d="M11,5.8515767 C11,5.81354617 10.9942925,5.77492142 10.9823021,5.73684138 C10.9209113,5.54173688 10.7177937,5.43492459 10.5290647,5.49840783 L10.3597122,5.55520602 L10.3597122,5.37139183 C10.3597122,5.1662845 10.1986571,5 10,5 C9.80134292,5 9.64028776,5.1662845 9.64028776,5.37139183 L9.64028776,5.55520602 L9.47093525,5.49840783 C9.28191846,5.43497411 9.07904077,5.5417864 9.01769784,5.73684138 C9.00570743,5.77497094 9,5.81359569 9,5.8515767 C9,6.00815549 9.09664268,6.15379061 9.24868105,6.20479508 L9.41803357,6.26159327 L9.31338129,6.41029856 C9.26695443,6.47625775 9.24460431,6.55266543 9.24465228,6.62837984 C9.24465228,6.74316467 9.29611511,6.8563649 9.39294964,6.92900914 C9.45678657,6.97689393 9.53079136,6.99996974 9.60407673,6.99996974 C9.71529975,6.99996974 9.824988,6.94688547 9.89539568,6.84685727 L10.0000959,6.69815198 L10.1047482,6.84685727 C10.2215827,7.01284466 10.4464748,7.04958769 10.6071942,6.92905866 C10.7040288,6.85641442 10.7554436,6.74321419 10.7554916,6.62842936 C10.7554916,6.55271495 10.7331894,6.47625775 10.6867626,6.41029856 L10.5821103,6.26159327 L10.7514149,6.20479508 C10.9033573,6.15379061 11.0000479,6.00815549 11,5.8515767 L11,5.8515767 Z" id="Path"></path>
                <path d="M13,8.85156163 C13,8.8135813 12.9942928,8.77490771 12.982303,8.73682834 C12.920915,8.54177681 12.7179512,8.43491689 12.5290394,8.49839901 L12.359695,8.5551962 L12.359695,8.37138525 C12.359695,8.16628156 12.1986475,8 12,8 C11.8013525,8 11.640305,8.16628156 11.640305,8.37138525 L11.640305,8.5551962 L11.4709606,8.49839901 C11.281905,8.43491689 11.079085,8.54177681 11.017697,8.73682834 C11.0057072,8.77495723 11,8.8135813 11,8.85156163 C10.9999521,9.00818717 11.0965901,9.15381971 11.2486212,9.20477376 L11.4179656,9.26157095 L11.3133183,9.41027361 C11.2668937,9.47623163 11.2445446,9.55263795 11.2445926,9.62840054 C11.2445926,9.74318335 11.296053,9.85638157 11.3928828,9.92902453 C11.4567647,9.97690847 11.530718,10 11.6039998,10 C11.7152175,10 11.8249005,9.94690054 11.8953048,9.84687411 L12,9.69817145 L12.1046473,9.84687411 C12.2213803,10.012809 12.4463575,10.0496009 12.6070692,9.92907405 C12.703947,9.85643109 12.7553594,9.74323287 12.7553594,9.62840054 C12.7553594,9.55268747 12.7330584,9.47623163 12.6866337,9.41032312 L12.5819865,9.26162047 L12.7513309,9.20482328 C12.9034099,9.15381971 13.0000479,9.00818717 13,8.85156163 L13,8.85156163 Z" id="Path"></path>
                <path d="M12.000024,2 C11.8013717,2 11.6403204,2.16628246 11.6403204,2.37138727 L11.6403204,2.55519921 L11.4709719,2.49840171 C11.2819117,2.43496877 11.0790868,2.54177975 11.0176974,2.73683234 C11.0057073,2.77496143 11,2.81358571 11,2.85156625 C10.9999521,3.00819264 11.0965924,3.15382596 11.2486271,3.2047803 L11.4179756,3.26157779 L11.3133258,3.41033077 C11.2669001,3.47628915 11.2445505,3.55269589 11.2445985,3.62840937 C11.2445985,3.7431928 11.2960601,3.85639164 11.3928923,3.92903499 C11.5536078,4.04961205 11.7785904,4.01281996 11.8953263,3.84688412 L12.000024,3.69818066 L12.1046737,3.84688412 C12.1750797,3.9469111 12.2847653,4 12.3959857,4 C12.4692693,4 12.5432723,3.97691919 12.6071077,3.92903499 C12.7039399,3.85639164 12.7553536,3.7431928 12.7554015,3.62840937 C12.7554015,3.55269589 12.7330999,3.47623963 12.6866742,3.41028125 L12.5819764,3.26152827 L12.7513729,3.20473078 C12.9034076,3.15372693 13.0000479,3.0080936 13,2.85151673 C13,2.81353619 12.9942927,2.7748624 12.9823026,2.73678282 C12.9209132,2.54173023 12.7179444,2.43486973 12.5290281,2.4983522 L12.3596796,2.55514969 L12.3596796,2.37133775 C12.3597276,2.16628246 12.1986763,2 12.000024,2 L12.000024,2 Z" id="Path"></path>
                <path d="M14.8952518,4.84688336 L14.9999041,4.69817598 L15.1046043,4.84688336 C15.174964,4.94691298 15.2846523,5 15.3959233,5 C15.4692086,5 15.5432134,4.97692186 15.6070504,4.9290364 C15.7039329,4.85639113 15.7553477,4.7431893 15.7553477,4.62840285 C15.7553477,4.55268736 15.7330456,4.47622909 15.6866187,4.41031848 L15.5819664,4.2616111 L15.7513189,4.2048121 C15.9033573,4.15380691 16,4.00816973 16,3.85158873 C16,3.81355767 15.9942926,3.77493237 15.9823022,3.73685179 C15.9209113,3.54179405 15.7179377,3.43493073 15.5290648,3.49841487 L15.3597122,3.55521386 L15.3597122,3.37139707 C15.3597122,3.16628685 15.1986571,3 15,3 C14.8013429,3 14.6402878,3.16628685 14.6402878,3.37139707 L14.6402878,3.55521386 L14.4709353,3.49841487 C14.2819185,3.43498025 14.0790887,3.54179405 14.0176979,3.73685179 C14.0057075,3.77493237 14,3.81360719 14,3.85158873 C13.9999521,4.00816973 14.0966427,4.15380691 14.2486811,4.2048121 L14.4179856,4.2616111 L14.3133333,4.41031848 C14.2669545,4.4762786 14.2446043,4.55268736 14.2446043,4.62845237 C14.2446523,4.74323882 14.2960672,4.85644065 14.3929017,4.92908592 C14.5535252,5.04961665 14.7784652,5.01277406 14.8952518,4.84688336 L14.8952518,4.84688336 Z" id="Path"></path>
                <path d="M5,7.81466387 C5,7.79264903 4.99672148,7.7702902 4.98983386,7.74824669 C4.95456924,7.63530596 4.83792048,7.57344654 4.72948177,7.61022395 L4.20662864,7.78697333 L4.20662864,7.21498871 C4.20662864,7.09625761 4.11411411,7 4,7 C3.88588589,7 3.79337136,7.09625761 3.79337136,7.21498871 L3.79337136,7.78697333 L3.27051823,7.61022395 C3.16196932,7.57347521 3.04540321,7.63533463 3.01016614,7.74824669 C3.00327852,7.7702902 3,7.79267769 3,7.81466387 C2.99997246,7.90530311 3.05548669,7.98960735 3.14284928,8.01913247 L3.66567485,8.19588185 L3.3425352,8.65862354 C3.31589388,8.69680553 3.30305536,8.74103588 3.30305536,8.78489357 C3.30305536,8.85133942 3.33261703,8.91686797 3.38824146,8.95891977 C3.42491116,8.98663898 3.46742156,9 3.5095187,9 C3.57340828,9 3.63641624,8.96926789 3.67686035,8.91136426 L3.99997245,8.44862257 L4.3231121,8.91136426 C4.39019753,9.00742122 4.51938176,9.02871943 4.61173099,8.95891977 C4.66735542,8.91686797 4.69688954,8.85133942 4.69691709,8.78489357 C4.69691709,8.74106454 4.68410612,8.69680553 4.65743725,8.65865221 L4.3342976,8.19591051 L4.85712317,8.01916113 C4.94451331,7.98960735 5.00002754,7.90530311 5,7.81466387 L5,7.81466387 Z" id="Path"></path>
                <path d="M14,6.5 C14,6.22386667 13.7767287,6 13.5013298,6 L13.4960106,6 C13.2206117,6 13,6.22386667 13,6.5 C13,6.77613333 13.2259309,7 13.5013298,7 C13.7767287,7 14,6.77613333 14,6.5 L14,6.5 Z" id="Path"></path>
            </g>
        </g>
    </g>
</svg>