<svg xmlns="http://www.w3.org/2000/svg" width="70" height="70" viewBox="0 0 70 70">
    <g fill="none" fill-rule="evenodd">
        <g fill="#C1351F" fill-rule="nonzero">
            <path d="M43.671 23.522c-.33-.443-.958-.536-1.403-.208-.446.328-.54.953-.21 1.396l4.983 6.691c.554.745.514 1.866-.091 2.553l-5.368 6.091H26.466l-5.368-6.091c-.605-.687-.645-1.808-.091-2.553l9.892-13.285v7.57c-1.254.958-1.987 2.424-1.987 4.024 0 2.803 2.293 5.083 5.112 5.083s5.112-2.28 5.112-5.083c0-1.528-.684-2.955-1.853-3.916v-7.498l2.203 2.959c.33.443.958.536 1.403.208.446-.328.54-.953.21-1.396l-4.304-5.78c-.678-.91-1.688-1.432-2.77-1.432-1.084 0-2.094.522-2.772 1.432L19.394 30.214c-1.112 1.494-1.028 3.667.195 5.055l4.477 5.08c-1.118.518-1.895 1.646-1.895 2.95v4.76c0 1.458.968 2.695 2.299 3.108l.273 7.864c.02.539.464.963 1.003.963h.035c.554-.02.987-.481.968-1.032l-.266-7.648h15.216l-.266 7.648c-.019.55.414 1.013.968 1.032h.036c.538 0 .983-.424 1.002-.963l.275-7.91c1.26-.453 2.163-1.654 2.163-3.061V43.3c0-1.305-.777-2.433-1.895-2.951l4.477-5.08c1.224-1.388 1.307-3.561.195-5.055l-4.983-6.692zm-9.647-8.671c.447 0 .858.221 1.158.623l.094.126v10.696c0 .335.17.649.452.833.877.574 1.4 1.54 1.4 2.58 0 1.703-1.392 3.088-3.104 3.088-1.712 0-3.105-1.385-3.105-3.087 0-1.091.562-2.08 1.503-2.645.3-.18.484-.505.484-.854V15.426c.296-.37.69-.575 1.118-.575zM43.87 48.06c0 .694-.568 1.259-1.266 1.259h-17.16c-.698 0-1.266-.565-1.266-1.26V43.3c0-.694.568-1.258 1.266-1.258h17.16c.699 0 1.266.564 1.266 1.259v4.76zM14.056 23.828c.132-3.16 1.016-6.256 2.58-8.998.274-.48.105-1.088-.377-1.36s-1.094-.104-1.368.375c-1.734 3.04-2.71 6.471-2.843 9.974-1.732.438-3.017 2-3.017 3.857 0 2.194 1.796 3.979 4.002 3.979 2.207 0 4.002-1.785 4.002-3.98 0-1.842-1.266-3.396-2.979-3.847zm-1.023 5.832c-1.1 0-1.995-.89-1.995-1.984 0-1.094.895-1.984 1.995-1.984s1.995.89 1.995 1.984c0 1.094-.895 1.984-1.995 1.984z" transform="translate(0 5)"/>
            <path d="M66.057 0h-3.224c-1.172 0-2.125.948-2.125 2.113v.605h-22.88v-.605C37.828.948 36.875 0 35.703 0H32.48c-1.172 0-2.125.948-2.125 2.113v.605H7.474v-.605C7.474.948 6.52 0 5.349 0H2.125C.953 0 0 .948 0 2.113v3.206C0 6.484.953 7.43 2.125 7.43h3.224c1.171 0 2.125-.947 2.125-2.112v-.606h17.418c-2.786 1.273-5.3 3.12-7.365 5.453-.366.414-.326 1.044.09 1.409.19.166.427.248.663.248.278 0 .555-.114.753-.338C22 8.134 25.986 5.881 30.354 5.061v.258c0 1.165.953 2.112 2.125 2.112h3.224c1.172 0 2.125-.947 2.125-2.112v-.258c9.109 1.707 15.915 9.517 16.299 18.767-1.713.45-2.98 2.005-2.98 3.848 0 2.194 1.795 3.98 4.001 3.98 2.207 0 4.002-1.786 4.002-3.98 0-1.856-1.284-3.42-3.016-3.857-.32-8.393-5.447-15.72-12.844-19.105h17.418v.605c0 1.165.953 2.113 2.125 2.113h3.224c1.172 0 2.125-.948 2.125-2.113V2.113C68.182.948 67.229 0 66.057 0zM5.467 5.319c0 .064-.053.117-.118.117H2.125c-.065 0-.118-.053-.118-.117V2.113c0-.065.053-.118.118-.118h3.224c.065 0 .118.053.118.118v3.206zm51.677 22.357c0 1.093-.895 1.983-1.996 1.983-1.1 0-1.995-.89-1.995-1.983 0-1.094.895-1.984 1.995-1.984s1.996.89 1.996 1.984zM35.82 5.319c0 .064-.053.117-.118.117H32.48c-.065 0-.118-.053-.118-.117V2.113c0-.065.053-.118.118-.118h3.224c.065 0 .118.053.118.118v3.206zm30.354 0c0 .064-.053.117-.118.117h-3.224c-.065 0-.118-.053-.118-.117V2.113c0-.065.053-.118.118-.118h3.224c.065 0 .118.053.118.118v3.206z" transform="translate(0 5)"/>
        </g>
        <path d="M0 0H70V70H0z"/>
    </g>
</svg>
