<svg xmlns="http://www.w3.org/2000/svg" width="70" height="62" viewBox="0 0 70 62">
    <g fill="#C1351F">
        <path d="M65.774 0H4.226C1.896 0 0 1.862 0 4.151v41.742c0 2.289 1.896 4.15 4.226 4.15h21.09v3.021c0 2.769-2.293 5.022-5.112 5.022h-4.648c-.891 0-1.614.71-1.614 1.585s.723 1.585 1.614 1.585h38.888c.891 0 1.614-.71 1.614-1.585 0-.876-.723-1.585-1.614-1.585h-4.648c-2.819 0-5.112-2.253-5.112-5.022v-3.02h21.09c2.33 0 4.226-1.862 4.226-4.151V4.151C70 1.862 68.105 0 65.774 0zM26.786 58.086c1.1-1.388 1.758-3.13 1.758-5.022v-3.02h12.913v3.02c0 1.892.657 3.634 1.757 5.022H26.786zm39.987-12.193c0 .54-.448.98-.999.98H4.226c-.55 0-.999-.44-.999-.98v-8.33h63.546v8.33zm0-11.501H3.227V4.15c0-.54.448-.98.999-.98h61.548c.55 0 .999.439.999.98v30.24z"/>
        <ellipse cx="35.271" cy="42.08" rx="1.628" ry="1.598"/>
        <path d="M37.511 11.118c-.63-.62-1.654-.62-2.285 0l-11.42 11.21c-.63.619-.63 1.623 0 2.242.316.31.73.465 1.143.465.414 0 .827-.155 1.143-.465l11.42-11.209c.63-.62.63-1.624 0-2.243zM44.577 17.499c-.616-.605-1.615-.605-2.231 0l-4.442 4.36c-.616.604-.616 1.585 0 2.19.308.302.712.453 1.115.453.404 0 .808-.15 1.116-.453l4.442-4.36c.616-.605.616-1.586 0-2.19z"/>
    </g>
</svg>
